ply
format ascii 1.0
element vertex 10
property float x
property float y
property float z
property float nx
property float ny
property float nz
property uchar diffuse_red
property uchar diffuse_green
property uchar diffuse_blue
end_header
2.90414 -3.38211 -3.45819 0.16854 0.873188 0.457314 119 110 97
1.50953 -2.36568 -3.76814 -0.127687 0.892349 -0.432908 106 102 79
1.5077 -2.38919 -3.76238 -0.0346396 0.923828 -0.381238 116 109 83
1.45755 -2.39478 -3.767 -0.0169869 0.993628 0.111425 198 198 185
1.36496 -2.41442 -3.76907 0.23492 0.956015 -0.175638 158 139 111
-0.374717 -2.92923 -3.77354 -0.0139117 0.894646 0.446559 110 111 90
2.95535 -3.34416 -3.48736 -0.480371 0.873315 -0.0810259 105 74 64
2.93963 -3.35498 -3.47776 -0.580544 0.782172 0.226221 137 104 92
2.90535 -3.36482 -3.47612 0.15752 0.863433 0.479241 46 56 49
1.47118 -2.38697 -3.77357 -0.381338 0.893253 0.238077 106 112 88
